<svg width="1225" height="216" viewBox="0 0 1225 216" fill="none" xmlns="http://www.w3.org/2000/svg">
<rect width="1225" height="216" fill="black"/>
<circle cx="149" cy="108" r="66" fill="white" stroke="#D67575" stroke-width="20"/>
<line x1="201.339" y1="58.1749" x2="104.989" y2="154.525" stroke="#D67575" stroke-width="20"/>
<path d="M369.52 91.48C370.373 91.48 371.099 91.8 371.696 92.44C372.336 93.0373 372.656 93.7627 372.656 94.616C372.656 95.512 372.336 96.28 371.696 96.92C371.099 97.5173 370.373 97.816 369.52 97.816C368.667 97.816 367.92 97.5173 367.28 96.92C366.683 96.28 366.384 95.512 366.384 94.616C366.384 93.7627 366.683 93.0373 367.28 92.44C367.92 91.8 368.667 91.48 369.52 91.48ZM377.264 91.48C378.16 91.48 378.907 91.8 379.504 92.44C380.144 93.0373 380.464 93.7627 380.464 94.616C380.464 95.512 380.144 96.28 379.504 96.92C378.907 97.5173 378.16 97.816 377.264 97.816C376.411 97.816 375.664 97.5173 375.024 96.92C374.427 96.28 374.128 95.512 374.128 94.616C374.128 93.7627 374.427 93.0373 375.024 92.44C375.664 91.8 376.411 91.48 377.264 91.48ZM380.464 103.832V128.024C380.464 128.792 380.677 129.389 381.104 129.816C381.488 130.243 381.915 130.456 382.384 130.456H383.664V135H380.976C379.013 135 377.456 134.253 376.304 132.76C373.531 134.723 370.544 135.704 367.344 135.704C362.864 135.704 359.323 133.955 356.72 130.456C354.587 127.597 353.52 124.184 353.52 120.216C353.52 115.565 355.056 111.704 358.128 108.632C360.859 105.859 364.208 104.472 368.176 104.472C370.437 104.472 372.72 104.984 375.024 106.008L377.776 103.832H380.464ZM375.024 110.488C373.147 109.549 371.248 109.08 369.328 109.08C366.085 109.08 363.461 110.36 361.456 112.92C359.792 115.011 358.96 117.485 358.96 120.344C358.96 123.757 359.771 126.445 361.392 128.408C362.971 130.2 365.104 131.096 367.792 131.096C370.096 131.096 372.507 130.477 375.024 129.24V110.488ZM392.14 115.992C393.633 112.237 396.129 109.315 399.628 107.224C402.444 105.603 405.367 104.792 408.396 104.792C411.425 104.792 414.327 105.603 417.1 107.224C420.641 109.315 423.137 112.237 424.588 115.992L424.012 117.528C421.068 118.765 418.657 120.451 416.78 122.584C414.86 124.803 413.644 127.427 413.132 130.456H425.228V135H412.236C410.956 135 409.719 134.381 408.524 133.144H408.332C407.18 134.381 405.943 135 404.62 135H383.244V130.456H403.66C403.191 127.853 402.124 125.4 400.46 123.096C398.54 120.707 395.98 118.851 392.78 117.528L392.14 115.992ZM418.7 115.352C417.292 113.304 415.692 111.768 413.9 110.744C412.193 109.848 410.359 109.4 408.396 109.4C406.433 109.4 404.663 109.805 403.084 110.616C401.207 111.555 399.543 113.133 398.092 115.352C400.311 116.333 402.209 117.72 403.788 119.512C405.751 121.731 407.244 124.504 408.268 127.832H408.46C409.527 124.376 411.063 121.539 413.068 119.32C414.689 117.613 416.567 116.291 418.7 115.352ZM441.703 89.176V119.576C447.505 109.72 455.207 104.792 464.807 104.792C469.841 104.792 473.916 106.371 477.031 109.528C479.804 112.387 481.191 116.013 481.191 120.408V128.92C481.191 130.371 480.743 131.672 479.847 132.824C478.652 134.275 477.18 135 475.431 135H424.806V130.456H436.327V89.176H441.703ZM475.751 119.832C475.708 116.419 474.449 113.773 471.975 111.896C469.841 110.275 467.153 109.464 463.911 109.464C460.028 109.464 456.423 110.701 453.095 113.176C448.444 116.675 444.647 122.435 441.703 130.456H473.319C474.94 130.456 475.751 129.645 475.751 128.024V119.832ZM494.606 89.176V128.024C494.606 128.707 494.819 129.283 495.246 129.752C495.715 130.221 496.313 130.456 497.038 130.456H497.87V135H494.926C493.561 135 492.366 134.552 491.342 133.656C489.891 132.419 489.166 130.84 489.166 128.92V89.176H494.606ZM517.528 91.48C518.381 91.48 519.106 91.8 519.704 92.44C520.344 93.0373 520.664 93.7627 520.664 94.616C520.664 95.512 520.344 96.28 519.704 96.92C519.106 97.5173 518.381 97.816 517.528 97.816C516.674 97.816 515.928 97.5173 515.288 96.92C514.69 96.28 514.392 95.512 514.392 94.616C514.392 93.7627 514.69 93.0373 515.288 92.44C515.928 91.8 516.674 91.48 517.528 91.48ZM525.272 91.48C526.168 91.48 526.914 91.8 527.512 92.44C528.152 93.0373 528.472 93.7627 528.472 94.616C528.472 95.512 528.152 96.28 527.512 96.92C526.914 97.5173 526.168 97.816 525.272 97.816C524.418 97.816 523.672 97.5173 523.032 96.92C522.434 96.28 522.136 95.512 522.136 94.616C522.136 93.7627 522.434 93.0373 523.032 92.44C523.672 91.8 524.418 91.48 525.272 91.48ZM511.32 130.456C508.632 127.512 507.288 123.885 507.288 119.576C507.288 115.437 508.418 112.045 510.68 109.4C513.282 106.328 516.738 104.792 521.048 104.792C524.504 104.792 527.448 105.816 529.88 107.864C533.208 110.637 534.872 114.541 534.872 119.576C534.872 123.843 533.528 127.469 530.84 130.456H536.408V135H527.192H526.488C523.97 135 522.2 134.829 521.176 134.488H520.92C519.896 134.829 518.125 135 515.608 135H514.84H497.431V130.456H511.32ZM521.048 109.4C518.445 109.4 516.397 110.317 514.904 112.152C513.453 113.987 512.728 116.525 512.728 119.768C512.728 122.712 513.517 125.208 515.096 127.256C516.717 129.304 518.701 130.371 521.048 130.456C523.394 130.371 525.357 129.304 526.936 127.256C528.557 125.208 529.368 122.712 529.368 119.768C529.368 116.525 528.621 113.987 527.128 112.152C525.677 110.317 523.65 109.4 521.048 109.4ZM548.54 130.456C546.79 127.597 545.916 124.333 545.916 120.664C545.916 115.501 547.366 111.512 550.268 108.696C552.87 106.221 556.305 104.941 560.572 104.856C563.644 104.856 566.182 105.517 568.188 106.84C571.26 108.888 572.796 112.088 572.796 116.44V128.024C572.796 128.621 572.945 129.133 573.244 129.56C573.628 130.115 574.14 130.413 574.78 130.456H574.908V135H573.308C571.388 135 569.852 134.253 568.7 132.76C566.396 135.533 563.473 136.92 559.932 136.92C556.22 136.92 552.998 135.533 550.268 132.76H550.14L548.348 135H535.931V130.456H548.54ZM567.356 116.44C567.356 114.221 566.652 112.451 565.244 111.128C564.006 109.976 562.406 109.4 560.444 109.4C557.713 109.4 555.516 110.424 553.852 112.472C552.188 114.477 551.356 117.123 551.356 120.408C551.356 123.864 552.23 126.744 553.98 129.048C555.644 131.267 557.734 132.376 560.252 132.376C562.726 132.376 565.094 131.245 567.356 128.984V116.44ZM591.329 89.176V128.92C591.329 130.584 590.774 131.992 589.665 133.144C588.513 134.381 587.126 135 585.505 135H574.369V130.456H583.457C584.268 130.456 584.886 130.179 585.313 129.624C585.697 129.155 585.889 128.621 585.889 128.024V89.176H591.329ZM605.606 89.176V134.36L602.854 136.6H600.166V89.176H605.606ZM648.566 103.832C649.419 103.832 650.145 104.152 650.742 104.792C651.382 105.389 651.702 106.136 651.702 107.032C651.702 107.885 651.382 108.632 650.742 109.272C650.145 109.869 649.419 110.168 648.566 110.168C647.67 110.168 646.923 109.869 646.326 109.272C645.729 108.632 645.43 107.885 645.43 107.032C645.43 106.136 645.729 105.389 646.326 104.792C646.923 104.152 647.67 103.832 648.566 103.832ZM656.31 103.832C657.206 103.832 657.953 104.152 658.55 104.792C659.19 105.389 659.51 106.136 659.51 107.032C659.51 107.885 659.19 108.632 658.55 109.272C657.953 109.869 657.206 110.168 656.31 110.168C655.457 110.168 654.71 109.869 654.07 109.272C653.473 108.632 653.174 107.885 653.174 107.032C653.174 106.136 653.473 105.389 654.07 104.792C654.71 104.152 655.457 103.832 656.31 103.832ZM678.582 105.56V128.92C678.582 130.456 678.113 131.779 677.174 132.888C675.979 134.296 674.529 135 672.822 135H636.214C633.739 135 631.606 134.189 629.814 132.568C627.382 130.477 626.166 127.768 626.166 124.44V112.408L628.918 110.168H631.606V124.44C631.606 126.104 632.203 127.512 633.398 128.664C634.55 129.859 636.001 130.456 637.75 130.456H670.71C672.331 130.456 673.142 129.645 673.142 128.024V105.56H678.582ZM692.856 89.176V128.024C692.856 128.707 693.069 129.283 693.496 129.752C693.965 130.221 694.563 130.456 695.288 130.456H696.12V135H693.176C691.811 135 690.616 134.552 689.592 133.656C688.141 132.419 687.416 130.84 687.416 128.92V89.176H692.856ZM704.194 106.648C708.119 105.411 711.788 104.792 715.202 104.792C720.492 104.792 724.524 106.435 727.298 109.72C729.687 112.536 730.882 116.227 730.882 120.792V128.92C730.882 129.432 730.818 129.944 730.69 130.456H732.93V135H731.586L729.794 132.76H729.602C728.407 134.253 726.914 135 725.122 135H695.681V130.456H723.01C724.631 130.456 725.442 129.645 725.442 128.024V120.6C725.442 117.272 724.567 114.648 722.818 112.728C720.898 110.595 718.103 109.528 714.434 109.528C712.215 109.528 708.802 109.997 704.194 110.936V106.648ZM711.81 141.656C712.706 141.656 713.452 141.955 714.05 142.552C714.69 143.192 715.01 143.939 715.01 144.792C715.01 145.688 714.69 146.435 714.05 147.032C713.452 147.672 712.706 147.992 711.81 147.992C710.956 147.992 710.21 147.672 709.57 147.032C708.972 146.435 708.674 145.688 708.674 144.792C708.674 143.939 708.972 143.192 709.57 142.552C710.21 141.955 710.956 141.656 711.81 141.656ZM739.086 91.48C739.982 91.48 740.729 91.8 741.326 92.44C741.923 93.0373 742.222 93.7627 742.222 94.616C742.222 95.512 741.923 96.28 741.326 96.92C740.729 97.5173 739.982 97.816 739.086 97.816C738.233 97.816 737.486 97.5173 736.846 96.92C736.249 96.28 735.95 95.512 735.95 94.616C735.95 93.7627 736.249 93.0373 736.846 92.44C737.486 91.8 738.233 91.48 739.086 91.48ZM746.894 91.48C747.747 91.48 748.473 91.8 749.07 92.44C749.71 93.0373 750.03 93.7627 750.03 94.616C750.03 95.512 749.71 96.28 749.07 96.92C748.473 97.5173 747.747 97.816 746.894 97.816C745.998 97.816 745.23 97.5173 744.59 96.92C743.993 96.28 743.694 95.512 743.694 94.616C743.694 93.7627 743.993 93.0373 744.59 92.44C745.23 91.8 745.998 91.48 746.894 91.48ZM749.454 105.56V128.92C749.454 129.432 749.39 129.944 749.262 130.456H752.654V135H750.158L748.302 132.76H748.11C746.958 134.253 745.465 135 743.63 135H732.494V130.456H741.582C742.265 130.456 742.819 130.243 743.246 129.816C743.758 129.347 744.014 128.749 744.014 128.024V105.56H749.454ZM766.39 91.48C767.286 91.48 768.032 91.8 768.63 92.44C769.27 93.0373 769.59 93.7627 769.59 94.616C769.59 95.512 769.27 96.28 768.63 96.92C768.032 97.5173 767.286 97.816 766.39 97.816C765.536 97.816 764.79 97.5173 764.15 96.92C763.552 96.28 763.254 95.512 763.254 94.616C763.254 93.7627 763.552 93.0373 764.15 92.44C764.79 91.8 765.536 91.48 766.39 91.48ZM769.142 105.56V128.92C769.142 129.432 769.078 129.944 768.95 130.456H772.342V135H769.846L767.99 132.76H767.798C766.646 134.253 765.152 135 763.318 135H752.181V130.456H761.27C761.952 130.456 762.507 130.243 762.934 129.816C763.446 129.347 763.702 128.749 763.702 128.024V105.56H769.142ZM784.477 130.456C782.728 127.597 781.853 124.333 781.853 120.664C781.853 115.501 783.304 111.512 786.205 108.696C788.808 106.221 792.242 104.941 796.509 104.856C799.581 104.856 802.12 105.517 804.125 106.84C807.197 108.888 808.733 112.088 808.733 116.44V128.024C808.733 128.621 808.882 129.133 809.181 129.56C809.565 130.115 810.077 130.413 810.717 130.456H810.845V135H809.245C807.325 135 805.789 134.253 804.637 132.76C802.333 135.533 799.41 136.92 795.869 136.92C792.157 136.92 788.936 135.533 786.205 132.76H786.077L784.285 135H771.869V130.456H784.477ZM803.293 116.44C803.293 114.221 802.589 112.451 801.181 111.128C799.944 109.976 798.344 109.4 796.381 109.4C793.65 109.4 791.453 110.424 789.789 112.472C788.125 114.477 787.293 117.123 787.293 120.408C787.293 123.864 788.168 126.744 789.917 129.048C791.581 131.267 793.672 132.376 796.189 132.376C798.664 132.376 801.032 131.245 803.293 128.984V116.44ZM827.267 89.176V128.92C827.267 130.584 826.712 131.992 825.603 133.144C824.451 134.381 823.064 135 821.443 135H810.306V130.456H819.395C820.205 130.456 820.824 130.179 821.251 129.624C821.635 129.155 821.827 128.621 821.827 128.024V89.176H827.267ZM841.544 89.176V134.36L838.792 136.6H836.104V89.176H841.544ZM877.208 91.48C878.061 91.48 878.786 91.8 879.384 92.44C880.024 93.0373 880.344 93.7627 880.344 94.616C880.344 95.512 880.024 96.28 879.384 96.92C878.786 97.5173 878.061 97.816 877.208 97.816C876.354 97.816 875.608 97.5173 874.968 96.92C874.37 96.28 874.072 95.512 874.072 94.616C874.072 93.7627 874.37 93.0373 874.968 92.44C875.608 91.8 876.354 91.48 877.208 91.48ZM884.952 91.48C885.848 91.48 886.594 91.8 887.192 92.44C887.832 93.0373 888.152 93.7627 888.152 94.616C888.152 95.512 887.832 96.28 887.192 96.92C886.594 97.5173 885.848 97.816 884.952 97.816C884.098 97.816 883.352 97.5173 882.712 96.92C882.114 96.28 881.816 95.512 881.816 94.616C881.816 93.7627 882.114 93.0373 882.712 92.44C883.352 91.8 884.098 91.48 884.952 91.48ZM888.152 103.832V128.024C888.152 128.792 888.365 129.389 888.792 129.816C889.176 130.243 889.602 130.456 890.072 130.456H891.352V135H888.664C886.701 135 885.144 134.253 883.992 132.76C881.218 134.723 878.232 135.704 875.032 135.704C870.552 135.704 867.01 133.955 864.408 130.456C862.274 127.597 861.208 124.184 861.208 120.216C861.208 115.565 862.744 111.704 865.816 108.632C868.546 105.859 871.896 104.472 875.864 104.472C878.125 104.472 880.408 104.984 882.712 106.008L885.464 103.832H888.152ZM882.712 110.488C880.834 109.549 878.936 109.08 877.016 109.08C873.773 109.08 871.149 110.36 869.144 112.92C867.48 115.011 866.648 117.485 866.648 120.344C866.648 123.757 867.458 126.445 869.08 128.408C870.658 130.2 872.792 131.096 875.48 131.096C877.784 131.096 880.194 130.477 882.712 129.24V110.488ZM903.54 130.456C901.79 127.597 900.916 124.333 900.916 120.664C900.916 115.501 902.366 111.512 905.268 108.696C907.87 106.221 911.305 104.941 915.572 104.856C918.644 104.856 921.182 105.517 923.188 106.84C926.26 108.888 927.796 112.088 927.796 116.44V128.024C927.796 128.621 927.945 129.133 928.244 129.56C928.628 130.115 929.14 130.413 929.78 130.456H929.908V135H928.308C926.388 135 924.852 134.253 923.7 132.76C921.396 135.533 918.473 136.92 914.932 136.92C911.22 136.92 907.998 135.533 905.268 132.76H905.14L903.348 135H890.931V130.456H903.54ZM922.356 116.44C922.356 114.221 921.652 112.451 920.244 111.128C919.006 109.976 917.406 109.4 915.444 109.4C912.713 109.4 910.516 110.424 908.852 112.472C907.188 114.477 906.356 117.123 906.356 120.408C906.356 123.864 907.23 126.744 908.98 129.048C910.644 131.267 912.734 132.376 915.252 132.376C917.726 132.376 920.094 131.245 922.356 128.984V116.44ZM939.097 94.872C938.244 93.7627 937.817 92.4187 937.817 90.84C937.817 89.0907 938.286 87.704 939.225 86.68C940.206 85.656 941.529 85.144 943.193 85.144C944.174 85.144 945.198 85.3147 946.265 85.656V88.28C945.454 88.0667 944.686 87.96 943.961 87.96C941.785 87.96 940.697 89.0907 940.697 91.352C940.697 92.2053 940.953 92.9733 941.465 93.656C942.148 94.4667 943.065 94.872 944.217 94.872H948.313V95.96L947.097 97.496H936.345V94.872H939.097ZM946.329 105.56V128.92C946.329 130.499 945.817 131.864 944.793 133.016C943.641 134.339 942.212 135 940.505 135H929.369V130.456H938.457C939.182 130.456 939.78 130.2 940.249 129.688C940.676 129.261 940.889 128.707 940.889 128.024V105.56H946.329ZM960.606 89.176V128.024C960.606 128.707 960.819 129.283 961.246 129.752C961.715 130.221 962.313 130.456 963.038 130.456H963.87V135H960.926C959.561 135 958.366 134.552 957.342 133.656C955.891 132.419 955.166 130.84 955.166 128.92V89.176H960.606ZM984.552 91.48C985.405 91.48 986.13 91.8 986.728 92.44C987.368 93.0373 987.688 93.7627 987.688 94.616C987.688 95.512 987.368 96.28 986.728 96.92C986.13 97.5173 985.405 97.816 984.552 97.816C983.656 97.816 982.888 97.5173 982.248 96.92C981.65 96.28 981.352 95.512 981.352 94.616C981.352 93.7627 981.65 93.0373 982.248 92.44C982.888 91.8 983.656 91.48 984.552 91.48ZM992.296 91.48C993.192 91.48 993.938 91.8 994.536 92.44C995.133 93.0373 995.432 93.7627 995.432 94.616C995.432 95.512 995.133 96.28 994.536 96.92C993.938 97.5173 993.192 97.816 992.296 97.816C991.442 97.816 990.696 97.5173 990.056 96.92C989.458 96.28 989.16 95.512 989.16 94.616C989.16 93.7627 989.458 93.0373 990.056 92.44C990.696 91.8 991.442 91.48 992.296 91.48ZM977.768 130.456C976.146 128.963 974.952 127.107 974.184 124.888C973.586 123.096 973.288 121.325 973.288 119.576C973.288 115.011 974.653 111.384 977.384 108.696C980.072 106.093 983.72 104.792 988.328 104.792C991.826 104.792 994.621 105.688 996.712 107.48C999.144 109.528 1000.4 112.515 1000.49 116.44V128.92C1000.49 130.584 999.912 132.013 998.76 133.208C997.65 134.403 996.306 135 994.728 135H963.431V130.456H977.768ZM994.984 116.44C994.984 114.051 994.28 112.216 992.872 110.936C991.762 109.912 990.248 109.4 988.328 109.4C984.786 109.4 982.184 110.637 980.52 113.112C979.325 114.819 978.728 117.037 978.728 119.768C978.77 122.669 979.709 125.144 981.544 127.192C983.464 129.368 986.002 130.456 989.16 130.456H992.616C994.194 130.456 994.984 129.645 994.984 128.024V116.44Z" fill="#DDDDDD"/>
<circle cx="1209" cy="21" r="8" fill="#D9D9D9" fill-opacity="0.73"/>
<circle cx="1209" cy="44" r="8" fill="#D9D9D9"/>
<circle cx="1209" cy="67" r="8" fill="#D9D9D9"/>
<circle cx="1209" cy="90" r="8" fill="#D9D9D9"/>
<circle cx="1209" cy="113" r="8" fill="#D9D9D9"/>
<circle cx="1209" cy="136" r="8" fill="#D9D9D9"/>
<circle cx="1209" cy="159" r="8" fill="#D9D9D9"/>
<circle cx="1209" cy="182" r="8" fill="#D9D9D9"/>
<circle cx="1209" cy="205" r="8" fill="#D9D9D9" fill-opacity="0.59"/>
<circle cx="1185" cy="21" r="8" fill="#D9D9D9" fill-opacity="0.66"/>
<circle cx="1185" cy="44" r="8" fill="#D9D9D9" fill-opacity="0.71"/>
<circle cx="1185" cy="67" r="8" fill="#D9D9D9"/>
<circle cx="1185" cy="90" r="8" fill="#D9D9D9"/>
<circle cx="1185" cy="113" r="8" fill="#D9D9D9"/>
<circle cx="1185" cy="136" r="8" fill="#D9D9D9"/>
<circle cx="1185" cy="159" r="8" fill="#D9D9D9"/>
<circle cx="1185" cy="182" r="8" fill="#D9D9D9" fill-opacity="0.62"/>
<circle cx="1161" cy="67" r="8" fill="#D9D9D9" fill-opacity="0.65"/>
<circle cx="1161" cy="90" r="8" fill="#D9D9D9" fill-opacity="0.87"/>
<circle cx="1161" cy="113" r="8" fill="#D9D9D9" fill-opacity="0.87"/>
<circle cx="1161" cy="136" r="8" fill="#D9D9D9" fill-opacity="0.87"/>
<circle cx="1161" cy="159" r="8" fill="#D9D9D9" fill-opacity="0.87"/>
<circle cx="1161" cy="182" r="8" fill="#D9D9D9" fill-opacity="0.45"/>
<circle cx="1113" cy="113" r="8" fill="#D9D9D9" fill-opacity="0.17"/>
<circle cx="1113" cy="136" r="8" fill="#D9D9D9" fill-opacity="0.31"/>
<circle cx="1113" cy="159" r="8" fill="#D9D9D9" fill-opacity="0.15"/>
<circle cx="1137" cy="90" r="8" fill="#D9D9D9" fill-opacity="0.54"/>
<circle cx="1137" cy="113" r="8" fill="#D9D9D9" fill-opacity="0.79"/>
<circle cx="1137" cy="136" r="8" fill="#D9D9D9" fill-opacity="0.79"/>
<circle cx="1137" cy="159" r="8" fill="#D9D9D9" fill-opacity="0.34"/>
</svg>
